<svg viewBox="0 0 800 500" xmlns="http://www.w3.org/2000/svg">
  <rect width="800" height="500" fill="#FAF6F0"/>
  <path d="M -50 60 Q 200 20 450 60 T 950 60" stroke="#A8431F" stroke-width="2" fill="none" opacity="0.15"/><path d="M -50 130 Q 200 90 450 130 T 950 130" stroke="#A8431F" stroke-width="2" fill="none" opacity="0.19"/><path d="M -50 200 Q 200 160 450 200 T 950 200" stroke="#A8431F" stroke-width="2" fill="none" opacity="0.22999999999999998"/><path d="M -50 270 Q 200 230 450 270 T 950 270" stroke="#A8431F" stroke-width="2" fill="none" opacity="0.27"/><path d="M -50 340 Q 200 300 450 340 T 950 340" stroke="#A8431F" stroke-width="2" fill="none" opacity="0.31"/><path d="M -50 410 Q 200 370 450 410 T 950 410" stroke="#A8431F" stroke-width="2" fill="none" opacity="0.35"/>
  <rect x="0" y="0" width="800" height="500" fill="none" stroke="#A8431F" stroke-width="10" opacity="0.9"/>
  <circle cx="710" cy="90" r="46" fill="#A8431F" opacity="0.92"/>
  <rect x="60" y="380" width="180" height="6" fill="#A8431F" opacity="0.8"/>
  <rect x="60" y="405" width="120" height="6" fill="#6B5D4F" opacity="0.5"/>
</svg>