<svg viewBox="0 0 800 500" xmlns="http://www.w3.org/2000/svg">
  <rect width="800" height="500" fill="#FAF6F0"/>
  <circle cx="40" cy="40" r="3" fill="#A8431F" opacity="0.25"/><circle cx="40" cy="100" r="3" fill="#A8431F" opacity="0.25"/><circle cx="40" cy="160" r="3" fill="#A8431F" opacity="0.25"/><circle cx="40" cy="220" r="3" fill="#A8431F" opacity="0.25"/><circle cx="40" cy="280" r="3" fill="#A8431F" opacity="0.25"/><circle cx="40" cy="340" r="3" fill="#A8431F" opacity="0.25"/><circle cx="40" cy="400" r="3" fill="#A8431F" opacity="0.25"/><circle cx="40" cy="460" r="3" fill="#A8431F" opacity="0.25"/><circle cx="100" cy="40" r="3" fill="#A8431F" opacity="0.25"/><circle cx="100" cy="100" r="3" fill="#A8431F" opacity="0.25"/><circle cx="100" cy="160" r="3" fill="#A8431F" opacity="0.25"/><circle cx="100" cy="220" r="3" fill="#A8431F" opacity="0.25"/><circle cx="100" cy="280" r="3" fill="#A8431F" opacity="0.25"/><circle cx="100" cy="340" r="3" fill="#A8431F" opacity="0.25"/><circle cx="100" cy="400" r="3" fill="#A8431F" opacity="0.25"/><circle cx="100" cy="460" r="3" fill="#A8431F" opacity="0.25"/><circle cx="160" cy="40" r="3" fill="#A8431F" opacity="0.25"/><circle cx="160" cy="100" r="3" fill="#A8431F" opacity="0.25"/><circle cx="160" cy="160" r="3" fill="#A8431F" opacity="0.25"/><circle cx="160" cy="220" r="3" fill="#A8431F" opacity="0.25"/><circle cx="160" cy="280" r="3" fill="#A8431F" opacity="0.25"/><circle cx="160" cy="340" r="3" fill="#A8431F" opacity="0.25"/><circle cx="160" cy="400" r="3" fill="#A8431F" opacity="0.25"/><circle cx="160" cy="460" r="3" fill="#A8431F" opacity="0.25"/><circle cx="220" cy="40" r="3" fill="#A8431F" opacity="0.25"/><circle cx="220" cy="100" r="3" fill="#A8431F" opacity="0.25"/><circle cx="220" cy="160" r="3" fill="#A8431F" opacity="0.25"/><circle cx="220" cy="220" r="3" fill="#A8431F" opacity="0.25"/><circle cx="220" cy="280" r="3" fill="#A8431F" opacity="0.25"/><circle cx="220" cy="340" r="3" fill="#A8431F" opacity="0.25"/><circle cx="220" cy="400" r="3" fill="#A8431F" opacity="0.25"/><circle cx="220" cy="460" r="3" fill="#A8431F" opacity="0.25"/><circle cx="280" cy="40" r="3" fill="#A8431F" opacity="0.25"/><circle cx="280" cy="100" r="3" fill="#A8431F" opacity="0.25"/><circle cx="280" cy="160" r="3" fill="#A8431F" opacity="0.25"/><circle cx="280" cy="220" r="3" fill="#A8431F" opacity="0.25"/><circle cx="280" cy="280" r="3" fill="#A8431F" opacity="0.25"/><circle cx="280" cy="340" r="3" fill="#A8431F" opacity="0.25"/><circle cx="280" cy="400" r="3" fill="#A8431F" opacity="0.25"/><circle cx="280" cy="460" r="3" fill="#A8431F" opacity="0.25"/><circle cx="340" cy="40" r="3" fill="#A8431F" opacity="0.25"/><circle cx="340" cy="100" r="3" fill="#A8431F" opacity="0.25"/><circle cx="340" cy="160" r="3" fill="#A8431F" opacity="0.25"/><circle cx="340" cy="220" r="3" fill="#A8431F" opacity="0.25"/><circle cx="340" cy="280" r="3" fill="#A8431F" opacity="0.25"/><circle cx="340" cy="340" r="3" fill="#A8431F" opacity="0.25"/><circle cx="340" cy="400" r="3" fill="#A8431F" opacity="0.25"/><circle cx="340" cy="460" r="3" fill="#A8431F" opacity="0.25"/><circle cx="400" cy="40" r="3" fill="#A8431F" opacity="0.25"/><circle cx="400" cy="100" r="3" fill="#A8431F" opacity="0.25"/><circle cx="400" cy="160" r="3" fill="#A8431F" opacity="0.25"/><circle cx="400" cy="220" r="3" fill="#A8431F" opacity="0.25"/><circle cx="400" cy="280" r="3" fill="#A8431F" opacity="0.25"/><circle cx="400" cy="340" r="3" fill="#A8431F" opacity="0.25"/><circle cx="400" cy="400" r="3" fill="#A8431F" opacity="0.25"/><circle cx="400" cy="460" r="3" fill="#A8431F" opacity="0.25"/><circle cx="460" cy="40" r="3" fill="#A8431F" opacity="0.25"/><circle cx="460" cy="100" r="3" fill="#A8431F" opacity="0.25"/><circle cx="460" cy="160" r="3" fill="#A8431F" opacity="0.25"/><circle cx="460" cy="220" r="3" fill="#A8431F" opacity="0.25"/><circle cx="460" cy="280" r="3" fill="#A8431F" opacity="0.25"/><circle cx="460" cy="340" r="3" fill="#A8431F" opacity="0.25"/><circle cx="460" cy="400" r="3" fill="#A8431F" opacity="0.25"/><circle cx="460" cy="460" r="3" fill="#A8431F" opacity="0.25"/><circle cx="520" cy="40" r="3" fill="#A8431F" opacity="0.25"/><circle cx="520" cy="100" r="3" fill="#A8431F" opacity="0.25"/><circle cx="520" cy="160" r="3" fill="#A8431F" opacity="0.25"/><circle cx="520" cy="220" r="3" fill="#A8431F" opacity="0.25"/><circle cx="520" cy="280" r="3" fill="#A8431F" opacity="0.25"/><circle cx="520" cy="340" r="3" fill="#A8431F" opacity="0.25"/><circle cx="520" cy="400" r="3" fill="#A8431F" opacity="0.25"/><circle cx="520" cy="460" r="3" fill="#A8431F" opacity="0.25"/><circle cx="580" cy="40" r="3" fill="#A8431F" opacity="0.25"/><circle cx="580" cy="100" r="3" fill="#A8431F" opacity="0.25"/><circle cx="580" cy="160" r="3" fill="#A8431F" opacity="0.25"/><circle cx="580" cy="220" r="3" fill="#A8431F" opacity="0.25"/><circle cx="580" cy="280" r="3" fill="#A8431F" opacity="0.25"/><circle cx="580" cy="340" r="3" fill="#A8431F" opacity="0.25"/><circle cx="580" cy="400" r="3" fill="#A8431F" opacity="0.25"/><circle cx="580" cy="460" r="3" fill="#A8431F" opacity="0.25"/><circle cx="640" cy="40" r="3" fill="#A8431F" opacity="0.25"/><circle cx="640" cy="100" r="3" fill="#A8431F" opacity="0.25"/><circle cx="640" cy="160" r="3" fill="#A8431F" opacity="0.25"/><circle cx="640" cy="220" r="3" fill="#A8431F" opacity="0.25"/><circle cx="640" cy="280" r="3" fill="#A8431F" opacity="0.25"/><circle cx="640" cy="340" r="3" fill="#A8431F" opacity="0.25"/><circle cx="640" cy="400" r="3" fill="#A8431F" opacity="0.25"/><circle cx="640" cy="460" r="3" fill="#A8431F" opacity="0.25"/><circle cx="700" cy="40" r="3" fill="#A8431F" opacity="0.25"/><circle cx="700" cy="100" r="3" fill="#A8431F" opacity="0.25"/><circle cx="700" cy="160" r="3" fill="#A8431F" opacity="0.25"/><circle cx="700" cy="220" r="3" fill="#A8431F" opacity="0.25"/><circle cx="700" cy="280" r="3" fill="#A8431F" opacity="0.25"/><circle cx="700" cy="340" r="3" fill="#A8431F" opacity="0.25"/><circle cx="700" cy="400" r="3" fill="#A8431F" opacity="0.25"/><circle cx="700" cy="460" r="3" fill="#A8431F" opacity="0.25"/><circle cx="760" cy="40" r="3" fill="#A8431F" opacity="0.25"/><circle cx="760" cy="100" r="3" fill="#A8431F" opacity="0.25"/><circle cx="760" cy="160" r="3" fill="#A8431F" opacity="0.25"/><circle cx="760" cy="220" r="3" fill="#A8431F" opacity="0.25"/><circle cx="760" cy="280" r="3" fill="#A8431F" opacity="0.25"/><circle cx="760" cy="340" r="3" fill="#A8431F" opacity="0.25"/><circle cx="760" cy="400" r="3" fill="#A8431F" opacity="0.25"/><circle cx="760" cy="460" r="3" fill="#A8431F" opacity="0.25"/>
  <rect x="0" y="0" width="800" height="500" fill="none" stroke="#A8431F" stroke-width="10" opacity="0.9"/>
  <circle cx="710" cy="90" r="46" fill="#A8431F" opacity="0.92"/>
  <rect x="60" y="380" width="180" height="6" fill="#A8431F" opacity="0.8"/>
  <rect x="60" y="405" width="120" height="6" fill="#6B5D4F" opacity="0.5"/>
</svg>