<svg viewBox="0 0 800 500" xmlns="http://www.w3.org/2000/svg">
  <rect width="800" height="500" fill="#FAF6F0"/>
  <line x1="-500" y1="0" x2="0" y2="500" stroke="#2F5D5A" stroke-width="3" opacity="0.1"/><line x1="-440" y1="0" x2="60" y2="500" stroke="#2F5D5A" stroke-width="3" opacity="0.1"/><line x1="-380" y1="0" x2="120" y2="500" stroke="#2F5D5A" stroke-width="3" opacity="0.1"/><line x1="-320" y1="0" x2="180" y2="500" stroke="#2F5D5A" stroke-width="3" opacity="0.1"/><line x1="-260" y1="0" x2="240" y2="500" stroke="#2F5D5A" stroke-width="3" opacity="0.1"/><line x1="-200" y1="0" x2="300" y2="500" stroke="#2F5D5A" stroke-width="3" opacity="0.1"/><line x1="-140" y1="0" x2="360" y2="500" stroke="#2F5D5A" stroke-width="3" opacity="0.1"/><line x1="-80" y1="0" x2="420" y2="500" stroke="#2F5D5A" stroke-width="3" opacity="0.1"/><line x1="-20" y1="0" x2="480" y2="500" stroke="#2F5D5A" stroke-width="3" opacity="0.1"/><line x1="40" y1="0" x2="540" y2="500" stroke="#2F5D5A" stroke-width="3" opacity="0.1"/><line x1="100" y1="0" x2="600" y2="500" stroke="#2F5D5A" stroke-width="3" opacity="0.1"/><line x1="160" y1="0" x2="660" y2="500" stroke="#2F5D5A" stroke-width="3" opacity="0.1"/><line x1="220" y1="0" x2="720" y2="500" stroke="#2F5D5A" stroke-width="3" opacity="0.1"/><line x1="280" y1="0" x2="780" y2="500" stroke="#2F5D5A" stroke-width="3" opacity="0.1"/><line x1="340" y1="0" x2="840" y2="500" stroke="#2F5D5A" stroke-width="3" opacity="0.1"/><line x1="400" y1="0" x2="900" y2="500" stroke="#2F5D5A" stroke-width="3" opacity="0.1"/><line x1="460" y1="0" x2="960" y2="500" stroke="#2F5D5A" stroke-width="3" opacity="0.1"/><line x1="520" y1="0" x2="1020" y2="500" stroke="#2F5D5A" stroke-width="3" opacity="0.1"/><line x1="580" y1="0" x2="1080" y2="500" stroke="#2F5D5A" stroke-width="3" opacity="0.1"/><line x1="640" y1="0" x2="1140" y2="500" stroke="#2F5D5A" stroke-width="3" opacity="0.1"/><line x1="700" y1="0" x2="1200" y2="500" stroke="#2F5D5A" stroke-width="3" opacity="0.1"/><line x1="760" y1="0" x2="1260" y2="500" stroke="#2F5D5A" stroke-width="3" opacity="0.1"/>
  <rect x="0" y="0" width="800" height="500" fill="none" stroke="#2F5D5A" stroke-width="10" opacity="0.9"/>
  <circle cx="710" cy="90" r="46" fill="#2F5D5A" opacity="0.92"/>
  <rect x="60" y="380" width="180" height="6" fill="#2F5D5A" opacity="0.8"/>
  <rect x="60" y="405" width="120" height="6" fill="#6B5D4F" opacity="0.5"/>
</svg>